<?xml version="1.0" standalone="no"?>
<!DOCTYPE svg PUBLIC "-//W3C//DTD SVG 20010904//EN"
 "http://www.w3.org/TR/2001/REC-SVG-20010904/DTD/svg10.dtd">
<svg version="1.0" xmlns="http://www.w3.org/2000/svg"
 width="1280.000000pt" height="1341.000000pt" viewBox="0 0 1280.000000 1341.000000"
 preserveAspectRatio="xMidYMid meet">
<metadata>
Created by potrace 1.16, written by Peter Selinger 2001-2019
</metadata>
<g transform="translate(0.000000,1341.000000) scale(0.100000,-0.100000)"
fill="#000000" stroke="none">
<path d="M0 6705 l0 -6705 6400 0 6400 0 0 6705 0 6705 -6400 0 -6400 0 0
-6705z m6360 1529 c0 -24 1 -24 100 -24 l100 0 0 -40 0 -40 80 0 80 0 0 -80 0
-80 80 0 80 0 0 -80 0 -80 80 0 80 0 0 -80 0 -80 60 0 60 0 0 -30 c0 -23 4
-30 20 -30 17 0 20 -7 20 -50 l0 -50 80 0 80 0 0 -80 0 -80 60 0 60 0 0 -40 0
-40 100 0 100 0 0 -40 c0 -33 -3 -40 -20 -40 -17 0 -20 -7 -20 -40 l0 -40 100
0 100 0 0 -80 0 -80 80 0 80 0 0 -80 0 -80 80 0 80 0 0 -40 0 -40 80 0 80 0 0
-80 0 -80 80 0 80 0 0 -80 0 -80 80 0 80 0 0 -80 0 -80 80 0 80 0 0 -80 0 -79
78 -3 77 -3 3 -77 3 -78 79 0 80 0 0 -40 0 -40 80 0 80 0 0 -80 0 -80 80 0 80
0 0 -80 0 -80 80 0 80 0 0 -80 0 -80 80 0 80 0 0 -40 0 -40 80 0 80 0 0 -80 0
-80 80 0 80 0 0 -80 c0 -80 0 -80 26 -80 15 0 33 8 40 17 7 10 16 14 21 9 10
-11 -30 -38 -76 -51 -26 -8 -37 -17 -39 -33 -4 -27 -22 -29 -29 -2 -3 11 -9
20 -14 20 -14 0 -11 -38 4 -43 14 -5 16 -3 -49 -50 -29 -20 -56 -37 -62 -37
-6 0 -18 -7 -27 -17 -19 -18 -132 -93 -142 -93 -4 0 -14 -6 -22 -14 -39 -35
-607 -346 -618 -339 -1 1 -49 -20 -105 -46 -104 -49 -220 -97 -248 -103 -8 -2
-17 -6 -20 -9 -9 -12 -423 -160 -438 -157 -4 1 -20 -4 -37 -11 -65 -27 -401
-113 -585 -151 -400 -81 -734 -117 -1155 -127 -1038 -23 -2033 201 -2965 667
-1022 511 -1896 1292 -2522 2255 -83 127 -218 351 -218 360 0 3 46 -26 103
-64 478 -322 1072 -532 1685 -596 194 -21 580 -21 775 0 781 82 1516 400 2110
914 192 167 412 404 576 624 26 34 51 57 62 57 20 0 26 16 9 22 -6 2 1 19 14
38 13 19 44 68 70 108 40 63 49 72 76 72 35 0 43 29 10 37 -18 5 -18 6 -3 32
29 45 47 59 61 49 6 -6 12 -21 12 -34z"/>
</g>
</svg>
